<?xml version="1.0" encoding="UTF-8"?>
<!DOCTYPE svg PUBLIC "-//W3C//DTD SVG 1.1//EN" "http://www.w3.org/Graphics/SVG/1.1/DTD/svg11.dtd">
<!-- Creator: CorelDRAW -->
<svg xmlns="http://www.w3.org/2000/svg" xml:space="preserve" width="6.82666in" height="6.82666in" style="shape-rendering:geometricPrecision; text-rendering:geometricPrecision; image-rendering:optimizeQuality; fill-rule:evenodd; clip-rule:evenodd"
viewBox="0 0 6.82666 6.82666"
 xmlns:xlink="http://www.w3.org/1999/xlink">
 <defs>
  <style type="text/css">
   <![CDATA[
    .fil3 {fill:none}
    .fil0 {fill:#424242}
    .fil2 {fill:#64B5F6}
    .fil1 {fill:#64B5F6;fill-rule:nonzero}
   ]]>
  </style>
 </defs>
 <g id="Layer_x0020_1">
  <metadata id="CorelCorpID_0Corel-Layer"/>
  <path class="fil0" d="M1.5851 2.68156c0.404146,0 0.731772,0.327626 0.731772,0.731772 0,0.404146 -0.327626,0.731772 -0.731772,0.731772 -0.40415,0 -0.731772,-0.327626 -0.731772,-0.731772 0,-0.404146 0.327622,-0.731772 0.731772,-0.731772zm0.107752 0.940953l-0.21987 0 -0.030248 0.103098 -0.197185 0 0.234705 -0.624563 0.210417 0 0.23485 0.624563 -0.201984 0 -0.030685 -0.103098zm-0.0404252 -0.135094l-0.0690748 -0.224524 -0.0686339 0.224524 0.137709 0z"/>
  <path class="fil0" d="M1.5851 4.50979c0.404146,0 0.731772,0.32763 0.731772,0.731772 0,0.40415 -0.327626,0.731776 -0.731772,0.731776 -0.40415,0 -0.731772,-0.327626 -0.731772,-0.731776 0,-0.404142 0.327622,-0.731772 0.731772,-0.731772zm0.155299 0.788634l0.169122 0.051185c-0.0113425,0.0474055 -0.0292283,0.0869606 -0.0536614,0.118803 -0.0244252,0.0318465 -0.0548189,0.0558425 -0.0910276,0.0719843 -0.0362087,0.0162835 -0.0823071,0.0242835 -0.138146,0.0242835 -0.0679094,0 -0.123461,-0.00988976 -0.166358,-0.0295157 -0.0430433,-0.0197795 -0.0802677,-0.0545354 -0.111535,-0.104268 -0.0311142,-0.0497323 -0.0468228,-0.11328 -0.0468228,-0.190787 0,-0.10339 0.0274843,-0.182933 0.0824528,-0.238339 0.0549685,-0.0555512 0.132764,-0.0833189 0.233244,-0.0833189 0.0786732,0 0.140476,0.0158465 0.185555,0.0476929 0.0450787,0.0318465 0.0785236,0.0807047 0.100335,0.146583l-0.170429 0.0379488c-0.00596063,-0.0190472 -0.0122126,-0.0330079 -0.0187559,-0.041878 -0.0107598,-0.014685 -0.0239921,-0.0260276 -0.0395551,-0.0340276 -0.0157047,-0.008 -0.0331535,-0.0119213 -0.0524921,-0.0119213 -0.043626,0 -0.0772165,0.0175945 -0.100484,0.0527835 -0.0175945,0.0261732 -0.0264685,0.0671811 -0.0264685,0.123169 0,0.0693622 0.0106181,0.116772 0.0315591,0.142508 0.0210827,0.0257402 0.0506063,0.0385354 0.0885551,0.0385354 0.036937,0 0.0648583,-0.0103228 0.0837638,-0.0311181 0.0189016,-0.0206496 0.0325748,-0.050752 0.0411496,-0.0903031z"/>
  <path class="fil0" d="M5.24156 2.68156c0.40415,0 0.731772,0.327626 0.731772,0.731772 0,0.404146 -0.327622,0.731772 -0.731772,0.731772 -0.404146,0 -0.731772,-0.327626 -0.731772,-0.731772 0,-0.404146 0.327626,-0.731772 0.731772,-0.731772zm-0.256516 0.419492l0.361366 0c0.0602008,0 0.106441,0.0149724 0.138583,0.0447874 0.0322795,0.0298071 0.0484213,0.0667441 0.0484213,0.110661 0,0.036937 -0.0114843,0.0686378 -0.0344646,0.0951024 -0.0154134,0.0175945 -0.0378071,0.0315551 -0.0673268,0.0417323 0.0447874,0.0107638 0.0777953,0.029374 0.0990276,0.0555512 0.0210866,0.0263228 0.0317008,0.0593307 0.0317008,0.0990276 0,0.0324331 -0.00756299,0.0615118 -0.0225394,0.0873976 -0.015122,0.0258819 -0.035626,0.0462441 -0.0617992,0.0613661 -0.0161417,0.00930315 -0.0405748,0.0161417 -0.0732913,0.0203583 -0.0434803,0.00566929 -0.0722756,0.00857874 -0.0865236,0.00857874l-0.333154 0 0 -0.624563zm0.194717 0.245024l0.0839055 0c0.0301024,0 0.0510394,-0.00523228 0.0629685,-0.0155551 0.0117756,-0.0104724 0.0175945,-0.0254528 0.0175945,-0.044937 0,-0.0181732 -0.0058189,-0.0324252 -0.0175945,-0.0426063 -0.0119291,-0.0103228 -0.0324331,-0.0154134 -0.0616614,-0.0154134l-0.0852126 0 0 0.118512zm0 0.245323l0.0984449 0c0.0332992,0 0.0567126,-0.0058189 0.0702362,-0.0175984 0.0136693,-0.0117756 0.0205039,-0.0276299 0.0205039,-0.0475512 0,-0.0184646 -0.00668504,-0.0332992 -0.0202087,-0.0444961 -0.0135276,-0.0111969 -0.0370827,-0.0168701 -0.0709685,-0.0168701l-0.0980079 0 0 0.126516z"/>
  <path class="fil0" d="M1.5851 0.853327c0.404146,0 0.731772,0.327626 0.731772,0.731776 0,0.404142 -0.327626,0.731772 -0.731772,0.731772 -0.40415,0 -0.731772,-0.32763 -0.731772,-0.731772 0,-0.40415 0.327622,-0.731776 0.731772,-0.731776zm0.155299 0.788634l0.169122 0.0511811c-0.0113425,0.0474094 -0.0292283,0.0869646 -0.0536614,0.118807 -0.0244252,0.0318465 -0.0548189,0.0558425 -0.0910276,0.0719803 -0.0362087,0.0162874 -0.0823071,0.0242835 -0.138146,0.0242835 -0.0679094,0 -0.123461,-0.00988583 -0.166358,-0.0295157 -0.0430433,-0.0197756 -0.0802677,-0.0545315 -0.111535,-0.104264 -0.0311142,-0.0497362 -0.0468228,-0.11328 -0.0468228,-0.190791 0,-0.10339 0.0274843,-0.182933 0.0824528,-0.238335 0.0549685,-0.0555512 0.132764,-0.0833228 0.233244,-0.0833228 0.0786732,0 0.140476,0.0158504 0.185555,0.0476969 0.0450787,0.0318465 0.0785236,0.0807047 0.100335,0.146579l-0.170429 0.0379528c-0.00596063,-0.0190512 -0.0122126,-0.0330118 -0.0187559,-0.041878 -0.0107598,-0.014689 -0.0239921,-0.0260315 -0.0395551,-0.0340315 -0.0157047,-0.00799606 -0.0331535,-0.0119213 -0.0524921,-0.0119213 -0.043626,0 -0.0772165,0.0175984 -0.100484,0.0527874 -0.0175945,0.0261732 -0.0264685,0.0671811 -0.0264685,0.123169 0,0.0693622 0.0106181,0.116768 0.0315591,0.142508 0.0210827,0.0257362 0.0506063,0.0385354 0.0885551,0.0385354 0.036937,0 0.0648583,-0.0103268 0.0837638,-0.031122 0.0189016,-0.0206457 0.0325748,-0.050752 0.0411496,-0.0902992z"/>
  <path class="fil0" d="M5.24156 0.853327c0.40415,0 0.731772,0.327626 0.731772,0.731776 0,0.404142 -0.327622,0.731772 -0.731772,0.731772 -0.404146,0 -0.731772,-0.32763 -0.731772,-0.731772 0,-0.40415 0.327626,-0.731776 0.731772,-0.731776zm0.107756 0.940957l-0.21987 0 -0.030252 0.103098 -0.197181 0 0.234705 -0.624563 0.210417 0 0.234846 0.624563 -0.201984 0 -0.0306811 -0.103098zm-0.0404252 -0.135094l-0.0690748 -0.224524 -0.0686378 0.224524 0.137713 0z"/>
  <path class="fil0" d="M5.24156 4.50979c0.40415,0 0.731772,0.32763 0.731772,0.731772 0,0.40415 -0.327622,0.731776 -0.731772,0.731776 -0.404146,0 -0.731772,-0.327626 -0.731772,-0.731776 0,-0.404142 0.327626,-0.731772 0.731772,-0.731772zm-0.256516 0.419492l0.361366 0c0.0602008,0 0.106441,0.0149764 0.138583,0.0447874 0.0322795,0.029811 0.0484213,0.066748 0.0484213,0.110661 0,0.036937 -0.0114843,0.0686378 -0.0344646,0.0951024 -0.0154134,0.0175945 -0.0378071,0.0315551 -0.0673268,0.0417362 0.0447874,0.0107638 0.0777953,0.0293701 0.0990276,0.0555512 0.0210866,0.0263189 0.0317008,0.0593268 0.0317008,0.0990276 0,0.0324291 -0.00756299,0.0615118 -0.0225394,0.0873976 -0.015122,0.025878 -0.035626,0.0462402 -0.0617992,0.0613622 -0.0161417,0.00930709 -0.0405748,0.0161417 -0.0732913,0.0203622 -0.0434803,0.00566929 -0.0722756,0.0085748 -0.0865236,0.0085748l-0.333154 0 0 -0.624563zm0.194717 0.245024l0.0839055 0c0.0301024,0 0.0510394,-0.00523228 0.0629685,-0.0155551 0.0117756,-0.0104724 0.0175945,-0.0254528 0.0175945,-0.044937 0,-0.0181732 -0.0058189,-0.0324252 -0.0175945,-0.0426063 -0.0119291,-0.0103228 -0.0324331,-0.0154134 -0.0616614,-0.0154134l-0.0852126 0 0 0.118512zm0 0.245323l0.0984449 0c0.0332992,0 0.0567126,-0.0058189 0.0702362,-0.0175945 0.0136693,-0.0117795 0.0205039,-0.0276339 0.0205039,-0.0475551 0,-0.0184646 -0.00668504,-0.0332992 -0.0202087,-0.0444961 -0.0135276,-0.0111969 -0.0370827,-0.0168701 -0.0709685,-0.0168701l-0.0980079 0 0 0.126516z"/>
  <polygon class="fil1" points="2.86148,1.40795 3.78406,1.40795 3.78406,1.68622 2.86148,1.68622 "/>
  <polygon class="fil2" points="3.43408,2.07819 3.43408,1.01598 3.96518,1.54708 "/>
  <polygon class="fil1" points="3.96519,3.55246 3.0426,3.55246 3.0426,3.2742 3.96519,3.2742 "/>
  <polygon class="fil2" points="3.39258,2.88222 3.39258,3.94444 2.86148,3.41333 "/>
  <polygon class="fil1" points="2.86148,5.10243 3.78406,5.10243 3.78406,5.38069 2.86148,5.38069 "/>
  <polygon class="fil2" points="3.43408,4.71045 3.43408,5.77267 3.96518,5.24156 "/>
 </g>
 <rect class="fil3" width="6.82666" height="6.82666"/>
</svg>
